<svg version="1.2" baseProfile="tiny-ps" xmlns="http://www.w3.org/2000/svg" viewBox="0 0 1495 550" width="1495" height="550">
	<title>uni-svg</title>
	<style>
		tspan { white-space:pre }
		.shp0 { fill: #ffffff } 
		.shp1 { fill: #cccccc } 
		.shp2 { fill: #a6a6a6 } 
	</style>
	<path id="Layer" class="shp0" d="M614.89 299.06L614.89 143.23L680.15 143.23L680.15 301.35C680.15 327.71 693.89 344.9 725.95 344.9C755.73 344.9 770.61 326.56 770.61 300.21L770.61 143.23L835.88 143.23L835.88 299.06C835.88 359.79 799.24 396.46 725.95 396.46C651.53 397.6 614.89 360.94 614.89 299.06ZM865.65 202.81L924.05 202.81L924.05 229.17L925.19 229.17C938.93 208.54 957.25 198.23 983.59 198.23C1024.81 198.23 1048.85 228.02 1048.85 270.42L1048.85 393.02L988.17 393.02L988.17 281.88C988.17 262.4 977.86 248.65 958.4 248.65C938.93 248.65 925.19 265.83 925.19 288.75L925.19 393.02L864.5 393.02L864.5 202.81L865.65 202.81ZM1079.77 128.33L1140.46 128.33L1140.46 177.6L1079.77 177.6L1079.77 128.33ZM1079.77 202.81L1140.46 202.81L1140.46 391.88L1079.77 391.88L1079.77 202.81ZM1187.4 342.6L1187.4 252.08L1162.21 252.08L1162.21 202.81L1187.4 202.81L1187.4 143.23L1245.8 143.23L1245.8 202.81L1280.15 202.81L1280.15 252.08L1245.8 252.08L1245.8 330C1245.8 344.9 1253.82 348.33 1266.41 348.33L1280.15 348.33L1280.15 391.88C1274.43 393.02 1262.98 395.31 1246.95 395.31C1212.6 395.31 1187.4 383.85 1187.4 342.6L1187.4 342.6ZM1317.94 407.92L1338.55 407.92C1355.73 407.92 1363.74 401.04 1363.74 388.44C1363.74 380.42 1360.31 368.96 1352.29 349.48L1296.18 203.96L1359.16 203.96L1384.35 284.17C1390.08 302.5 1395.8 327.71 1395.8 327.71L1396.95 327.71C1396.95 327.71 1402.67 302.5 1408.4 284.17L1433.59 203.96L1494.27 203.96L1429.01 395.31C1414.12 440 1395.8 454.9 1358.02 454.9L1319.08 454.9L1317.94 407.92Z" />
	<path id="Layer" class="shp1" d="M486.64 385L486.64 128.33L264.5 0L264.5 98.54L351.53 148.96C354.96 151.25 354.96 155.83 351.53 156.98L248.47 216.56C245.04 218.85 241.6 217.71 239.31 216.56L136.26 156.98C132.82 155.83 132.82 150.1 136.26 148.96L223.28 98.54L223.28 0L0 128.33L0 385L0 383.85L0 385L84.73 335.73L84.73 234.9C84.73 231.46 89.31 229.17 91.6 230.31L194.66 289.9C198.09 292.19 199.24 294.48 199.24 297.92L199.24 417.08C199.24 420.52 194.66 422.81 192.37 421.67L105.34 371.25L20.61 420.52L242.75 550L464.89 421.67L380.15 372.4L293.13 422.81C289.69 425.1 286.26 422.81 286.26 418.23L286.26 299.06C286.26 295.63 288.55 292.19 290.84 291.04L393.89 231.46C397.33 229.17 400.76 231.46 400.76 236.04L400.76 336.88L486.64 385L486.64 385Z" />
	<path id="Layer" class="shp2" d="M242.75 550L464.89 421.67L380.15 372.4L293.13 422.81C289.69 425.1 286.26 422.81 286.26 418.23L286.26 299.06C286.26 295.63 288.55 292.19 290.84 291.04L393.89 231.46C397.33 229.17 400.76 231.46 400.76 236.04L400.76 336.88L485.5 386.15L485.5 128.33L242.75 269.27L242.75 550Z" />
	<path id="Layer" class="shp0" d="M264.5 0L264.5 98.54L351.53 148.96C354.96 151.25 354.96 155.83 351.53 156.98L248.47 216.56C245.04 218.85 241.6 217.71 239.31 216.56L136.26 156.98C132.82 155.83 132.82 150.1 136.26 148.96L223.28 98.54L223.28 0L0 128.33L242.75 269.27L485.5 128.33L264.5 0Z" />
	<path id="Layer" class="shp1" d="M193.51 422.81L106.49 372.4L21.76 421.67L243.89 550L243.89 269.27L0 128.33L0 385L0 383.85L0 385L84.73 335.73L84.73 234.9C84.73 231.46 89.31 229.17 91.6 230.31L194.66 289.9C198.09 292.19 199.24 294.48 199.24 297.92L199.24 417.08C200.38 421.67 196.95 425.1 193.51 422.81L193.51 422.81Z" />
</svg>