<svg version="1.2" baseProfile="tiny-ps" xmlns="http://www.w3.org/2000/svg" viewBox="0 0 1500 552" width="1500" height="552">
	<title>Unity_2021-svg</title>
	<style>
		tspan { white-space:pre }
		.shp0 { fill: #000000 } 
		.shp1 { fill: #4c4c4c } 
		.shp2 { fill: #808080 } 
	</style>
	<g id="g849">
		<path id="path4" class="shp0" d="M617.24 300L617.24 143.68L682.76 143.68L682.76 302.3C682.76 328.74 696.55 345.98 728.74 345.98C758.62 345.98 773.56 327.59 773.56 301.15L773.56 143.68L839.08 143.68L839.08 300C839.08 360.92 802.3 397.7 728.74 397.7C654.02 398.85 617.24 362.07 617.24 300ZM868.97 203.45L927.59 203.45L927.59 229.89L928.74 229.89C942.53 209.2 960.92 198.85 987.36 198.85C1028.74 198.85 1052.87 228.74 1052.87 271.26L1052.87 394.25L991.95 394.25L991.95 282.76C991.95 263.22 981.61 249.43 962.07 249.43C942.53 249.43 928.74 266.67 928.74 289.66L928.74 394.25L867.82 394.25L867.82 203.45L868.97 203.45ZM1083.91 128.74L1144.83 128.74L1144.83 178.16L1083.91 178.16L1083.91 128.74ZM1083.91 203.45L1144.83 203.45L1144.83 393.1L1083.91 393.1L1083.91 203.45ZM1191.95 343.68L1191.95 252.87L1166.67 252.87L1166.67 203.45L1191.95 203.45L1191.95 143.68L1250.57 143.68L1250.57 203.45L1285.06 203.45L1285.06 252.87L1250.57 252.87L1250.57 331.03C1250.57 345.98 1258.62 349.43 1271.26 349.43L1285.06 349.43L1285.06 393.1C1279.31 394.25 1267.82 396.55 1251.72 396.55C1217.24 396.55 1191.95 385.06 1191.95 343.68ZM1322.99 409.2L1343.68 409.2C1360.92 409.2 1368.97 402.3 1368.97 389.66C1368.97 381.61 1365.52 370.11 1357.47 350.57L1301.15 204.6L1364.37 204.6L1389.66 285.06C1395.4 303.45 1401.15 328.74 1401.15 328.74L1402.3 328.74C1402.3 328.74 1408.05 303.45 1413.79 285.06L1439.08 204.6L1500 204.6L1434.48 396.55C1419.54 441.38 1401.15 456.32 1363.22 456.32L1324.14 456.32L1322.99 409.2Z" />
		<path id="path6" class="shp1" d="M488.51 386.21L488.51 128.74L265.52 0L265.52 98.85L352.87 149.43C356.32 151.72 356.32 156.32 352.87 157.47L249.43 217.24C245.98 219.54 242.53 218.39 240.23 217.24L136.78 157.47C133.33 156.32 133.33 150.57 136.78 149.43L224.14 98.85L224.14 0L0 128.74L0 386.21L0 385.06L0 386.21L85.06 336.78L85.06 235.63C85.06 232.18 89.66 229.89 91.95 231.03L195.4 290.8C198.85 293.1 200 295.4 200 298.85L200 418.39C200 421.84 195.4 424.14 193.1 422.99L105.75 372.41L20.69 421.84L243.68 551.72L466.67 422.99L381.61 373.56L294.25 424.14C290.8 426.44 287.36 424.14 287.36 419.54L287.36 300C287.36 296.55 289.66 293.1 291.95 291.95L395.4 232.18C398.85 229.89 402.3 232.18 402.3 236.78L402.3 337.93L488.51 386.21Z" />
		<path id="path8" class="shp0" d="M243.68 551.72L466.67 422.99L381.61 373.56L294.25 424.14C290.8 426.44 287.36 424.14 287.36 419.54L287.36 300C287.36 296.55 289.66 293.1 291.95 291.95L395.4 232.18C398.85 229.89 402.3 232.18 402.3 236.78L402.3 337.93L487.36 387.36L487.36 128.74L243.68 270.11L243.68 551.72Z" />
		<path id="path10" class="shp2" d="M265.52 0L265.52 98.85L352.87 149.43C356.32 151.72 356.32 156.32 352.87 157.47L249.43 217.24C245.98 219.54 242.53 218.39 240.23 217.24L136.78 157.47C133.33 156.32 133.33 150.57 136.78 149.43L224.14 98.85L224.14 0L0 128.74L243.68 270.11L487.36 128.74L265.52 0Z" />
		<path id="path12" class="shp1" d="M194.25 424.14L106.9 373.56L21.84 422.99L244.83 551.72L244.83 270.11L0 128.74L0 386.21L0 385.06L0 386.21L85.06 336.78L85.06 235.63C85.06 232.18 89.66 229.89 91.95 231.03L195.4 290.8C198.85 293.1 200 295.4 200 298.85L200 418.39C201.15 422.99 197.7 426.44 194.25 424.14L194.25 424.14Z" />
	</g>
</svg>