<!DOCTYPE svg PUBLIC "-//W3C//DTD SVG 1.1//EN" "http://www.w3.org/Graphics/SVG/1.1/DTD/svg11.dtd">
<!-- Uploaded to: SVG Repo, www.svgrepo.com, Transformed by: SVG Repo Mixer Tools -->
<svg height="800px" width="800px" version="1.1" id="Capa_1" xmlns="http://www.w3.org/2000/svg" xmlns:xlink="http://www.w3.org/1999/xlink" viewBox="-0.27 -0.27 28.04 28.04" xml:space="preserve" fill="#d6d3d1" stroke="#d6d3d1" stroke-width="0.00027498">
<g id="SVGRepo_bgCarrier" stroke-width="0" transform="translate(2.7497999999999987,2.7497999999999987), scale(0.8)">
<rect x="-0.27" y="-0.27" width="28.04" height="28.04" rx="14.02" fill="#242424" strokewidth="0"/>
</g>
<g id="SVGRepo_tracerCarrier" stroke-linecap="round" stroke-linejoin="round" stroke="#CCCCCC" stroke-width="0.329976"/>
<g id="SVGRepo_iconCarrier"> <g> <g id="c121_arrow"> <path style="fill:#d6d3d1;" d="M13.749,0C6.155,0,0,6.157,0,13.749c0,7.594,6.155,13.749,13.749,13.749 c7.591,0,13.748-6.155,13.748-13.749C27.497,6.157,21.34,0,13.749,0z M22.494,13.987L9.769,24.021 c-0.091,0.071-0.213,0.086-0.317,0.036s-0.166-0.154-0.166-0.269v-4.637l6.55-5.165c0.143-0.117,0.143-0.357,0-0.473l-6.55-5.168 V3.713c0-0.115,0.062-0.22,0.166-0.27s0.227-0.036,0.317,0.035l12.725,10.036C22.637,13.63,22.637,13.87,22.494,13.987z"/> </g> </g> </g>
</svg>